<?xml version="1.0" standalone="no"?>
<!DOCTYPE svg PUBLIC "-//W3C//DTD SVG 20010904//EN" "http://www.w3.org/TR/2001/REC-SVG-20010904/DTD/svg10.dtd">
<svg version="1.0"
  xmlns="http://www.w3.org/2000/svg" width="512.000000pt" height="512.000000pt" viewBox="0 0 512.000000 512.000000" preserveAspectRatio="xMidYMid meet">
  <g transform="translate(0.000000,512.000000) scale(0.100000,-0.100000)" fill="#272827">
    <path d="M2400 4804 c-19 -2 -73 -9 -120 -15 -378 -47 -738 -190 -1054 -420
-131 -95 -380 -344 -475 -475 -333 -457 -489 -1031 -426 -1564 49 -418 186
-774 426 -1104 95 -131 344 -380 475 -475 330 -240 686 -377 1104 -426 533
-63 1107 93 1564 426 131 95 380 344 475 475 240 330 377 686 426 1104 63 533
-93 1107 -426 1564 -95 131 -344 380 -475 475 -308 224 -632 356 -1024 417
-93 15 -401 26 -470 18z m470 -733 l0 -240 83 -25 c45 -14 129 -48 186 -76
l105 -51 158 158 158 158 217 -218 218 -217 -159 -159 -159 -159 47 -90 c25
-50 59 -130 75 -179 l29 -88 241 -3 241 -2 0 -310 0 -310 -238 0 -237 0 -33
-102 c-18 -57 -54 -143 -81 -193 l-48 -90 161 -163 161 -162 -218 -217 -217
-218 -162 162 -163 162 -95 -48 c-52 -26 -137 -61 -187 -76 l-93 -29 0 -238 0
-238 -310 0 -310 0 -2 241 -3 241 -95 32 c-52 17 -131 51 -175 74 l-80 42
-162 -162 -163 -163 -217 218 -218 217 161 162 160 163 -47 90 c-27 50 -63
136 -81 193 l-33 102 -237 0 -238 0 0 310 0 310 241 2 241 3 32 95 c17 52 53
136 79 185 l47 90 -163 163 -162 162 218 217 217 218 164 -164 165 -165 108
51 c59 28 141 61 181 73 l72 22 0 239 0 239 310 0 310 0 0 -239z" />
    <path d="M2384 3385 c-272 -59 -504 -257 -608 -519 -40 -99 -56 -187 -56 -306
0 -122 16 -208 59 -315 84 -210 256 -382 466 -466 123 -49 201 -62 350 -56
113 3 143 8 225 36 239 80 429 258 521 486 43 107 59 193 59 315 0 122 -16
208 -59 315 -103 257 -336 453 -609 511 -83 17 -267 17 -348 -1z m50 -624
c109 -109 197 -203 195 -209 -2 -5 -93 -96 -202 -203 l-198 -192 -72 71 -72
72 130 130 130 130 -130 130 -130 130 70 70 c38 38 72 70 75 70 3 0 95 -89
204 -199z m467 7 c109 -106 199 -200 199 -208 0 -8 -90 -102 -201 -209 l-201
-194 -71 71 -72 72 130 130 130 130 -130 130 -130 130 70 70 c38 38 71 70 73
70 2 0 93 -87 203 -192z" />
  </g>
</svg>